<svg id="kity_svg_6" xmlns="http://www.w3.org/2000/svg" xmlns:xlink="http://www.w3.org/1999/xlink" version="1.1" width="772" height="1915" style="background: rgb(251, 251, 251); visibility: visible;" viewBox="0 0 772 1915"><defs id="kity_defs_7"><linearGradient id="kity_linearGradient_17" x1="0" y1="0" x2="0" y2="1"><stop id="kity_stop_18" offset="0" stop-color="rgb(255, 255, 255)"></stop><stop id="kity_stop_19" offset="1" stop-color="rgb(204, 204, 204)"></stop></linearGradient><marker id="kity_marker_2" orient="auto" refX="6" refY="0" viewBox="-7 -7 14 14" markerWidth="7" markerHeight="7" markerUnits="userSpaceOnUse"><path id="kity_path_3" fill="rgb(115, 161, 191)" stroke="none" d="M6,0A6,6,0,1,1,-6,0A6,6,0,1,1,6,0"></path></marker></defs><g id="kity_g_8"><g id="minder1" text-rendering="optimize-speed"><g id="minder_connect_group1"><path id="kity_path_31" fill="none" stroke="rgb(115, 161, 191)" stroke-width="1" d="M85,802.5A133.5,693,0,0,1,218.5,109.5"></path><path id="kity_path_33" fill="none" stroke="rgb(115, 161, 191)" stroke-width="1" d="M358.5,109.5C378.5,109.5,378.5,31.5,398.5,31.5"></path><path id="kity_path_35" fill="none" stroke="rgb(115, 161, 191)" stroke-width="1" d="M358.5,109.5C378.5,109.5,378.5,83.5,398.5,83.5"></path><path id="kity_path_37" fill="none" stroke="rgb(115, 161, 191)" stroke-width="1" d="M358.5,109.5C378.5,109.5,378.5,135.5,398.5,135.5"></path><path id="kity_path_39" fill="none" stroke="rgb(115, 161, 191)" stroke-width="1" d="M358.5,109.5C378.5,109.5,378.5,187.5,398.5,187.5"></path><path id="kity_path_41" fill="none" stroke="rgb(115, 161, 191)" stroke-width="1" d="M85,802.5A124.5,195,0,0,0,209.5,997.5"></path><path id="kity_path_43" fill="none" stroke="rgb(115, 161, 191)" stroke-width="1" d="M349.5,997.5C369.5,997.5,369.5,735,389.5,735"></path><path id="kity_path_45" fill="none" stroke="rgb(115, 161, 191)" stroke-width="1" d="M349.5,997.5C369.5,997.5,369.5,916.5,389.5,916.5"></path><path id="kity_path_47" fill="none" stroke="rgb(115, 161, 191)" stroke-width="1" d="M349.5,997.5C373.5,997.5,373.5,1080,397.5,1080"></path><path id="kity_path_49" fill="none" stroke="rgb(115, 161, 191)" stroke-width="1" d="M349.5,997.5C369.5,997.5,369.5,1224.5,389.5,1224.5"></path><path id="kity_path_51" fill="none" stroke="rgb(115, 161, 191)" stroke-width="1" d="M349.5,997.5C369.5,997.5,369.5,1316.5,389.5,1316.5"></path><path id="kity_path_53" fill="none" stroke="rgb(115, 161, 191)" stroke-width="1" d="M85,802.5A83.5,888,0,0,0,168.5,1690.5"></path><path id="kity_path_55" fill="none" stroke="rgb(115, 161, 191)" stroke-width="1" d="M309.5,1690.5C329.5,1690.5,329.5,1510.5,349.5,1510.5"></path><path id="kity_path_57" fill="none" stroke="rgb(115, 161, 191)" stroke-width="1" d="M309.5,1690.5C329.5,1690.5,329.5,1634,349.5,1634"></path><path id="kity_path_59" fill="none" stroke="rgb(115, 161, 191)" stroke-width="1" d="M309.5,1690.5C329.5,1690.5,329.5,1814.5,349.5,1814.5"></path></g><g id="minder_node1"><path id="node_outline1" fill="rgb(115, 161, 191)" stroke="rgb(115, 161, 191)" d="M25.5,782.5h119a5,5,0,0,1,5,5v30a5,5,0,0,1,-5,5h-119a5,5,0,0,1,-5,-5v-30a5,5,0,0,1,5,-5z" stroke-width="3"></path><g id="node_text1" fill="white"><text id="kity_text_22" text-rendering="inherit" font-size="16" dy=".8em" y="792.0999999046326" x="44.5">近壁面处理</text></g></g><g id="kity_g_12"><path id="kity_path_13" fill="none" stroke="none" d="M44.5,802.5h0v0h0z"></path></g><g id="kity_g_14"><path id="kity_path_15" fill="none" stroke="none" d="M44.5,802.5h0v0h0z"></path><path id="kity_path_16" fill="none" stroke="none"></path></g><g id="minder_node2"><g id="node_expander5" style="cursor: pointer;"><path id="kity_path_140" fill="white" stroke="gray" d="M219.5,109.5A6,6,0,1,1,207.5,109.5A6,6,0,1,1,219.5,109.5"></path><path id="kity_path_141" fill="none" stroke="gray" d="M209,109.5L218,109.5"></path></g><path id="node_outline6" fill="rgb(238, 243, 246)" stroke="rgb(115, 161, 191)" d="M223.5,96.5h132a3,3,0,0,1,3,3v20a3,3,0,0,1,-3,3h-132a3,3,0,0,1,-3,-3v-20a3,3,0,0,1,3,-3z" stroke-width="1"></path><g id="node_text6" fill="black"><text id="kity_text_69" text-rendering="inherit" font-size="14" dy=".8em" y="100.40000009536743" x="240.5">近壁处理的目的</text></g></g><g id="minder_node3"><g id="node_expander1" display="none" style="cursor: pointer;"><path id="kity_path_128" fill="white" stroke="gray" d="M414.5,31.5A6,6,0,1,1,402.5,31.5A6,6,0,1,1,414.5,31.5"></path><path id="kity_path_129" fill="none" stroke="gray"></path></g><path id="node_outline2" fill="none" stroke="none" d="M403.5,20.5h120a5,5,0,0,1,5,5v12a5,5,0,0,1,-5,5h-120a5,5,0,0,1,-5,-5v-12a5,5,0,0,1,5,-5z"></path><g id="node_text2" fill="black"><text id="kity_text_61" text-rendering="inherit" font-size="12" dy=".8em" y="23.700000047683716" x="408.5">涡和湍流的主要来源</text></g></g><g id="minder_node4"><g id="node_expander2" display="none" style="cursor: pointer;"><path id="kity_path_131" fill="white" stroke="gray" d="M414.5,83.5A6,6,0,1,1,402.5,83.5A6,6,0,1,1,414.5,83.5"></path><path id="kity_path_132" fill="none" stroke="gray"></path></g><path id="node_outline3" fill="none" stroke="none" d="M403.5,72.5h144a5,5,0,0,1,5,5v12a5,5,0,0,1,-5,5h-144a5,5,0,0,1,-5,-5v-12a5,5,0,0,1,5,-5z"></path><g id="node_text3" fill="black"><text id="kity_text_63" text-rendering="inherit" font-size="12" dy=".8em" y="75.70000004768372" x="408.5">壁面导致湍流动量边界层</text></g></g><g id="minder_node5"><g id="node_expander3" display="none" style="cursor: pointer;"><path id="kity_path_134" fill="white" stroke="gray" d="M414.5,135.5A6,6,0,1,1,402.5,135.5A6,6,0,1,1,414.5,135.5"></path><path id="kity_path_135" fill="none" stroke="gray"></path></g><path id="node_outline4" fill="none" stroke="none" d="M403.5,124.5h108a5,5,0,0,1,5,5v12a5,5,0,0,1,-5,5h-108a5,5,0,0,1,-5,-5v-12a5,5,0,0,1,5,-5z"></path><g id="node_text4" fill="black"><text id="kity_text_65" text-rendering="inherit" font-size="12" dy=".8em" y="127.70000004768372" x="408.5">精细网格处理昂贵</text></g></g><g id="minder_node6"><g id="node_expander4" display="none" style="cursor: pointer;"><path id="kity_path_137" fill="white" stroke="gray" d="M414.5,187.5A6,6,0,1,1,402.5,187.5A6,6,0,1,1,414.5,187.5"></path><path id="kity_path_138" fill="none" stroke="gray"></path></g><path id="node_outline5" fill="none" stroke="none" d="M403.5,176.5h168a5,5,0,0,1,5,5v12a5,5,0,0,1,-5,5h-168a5,5,0,0,1,-5,-5v-12a5,5,0,0,1,5,-5z"></path><g id="node_text5" fill="black"><text id="kity_text_67" text-rendering="inherit" font-size="12" dy=".8em" y="179.70000004768372" x="408.5">粗糙网格下的近壁面处理模型</text></g></g><g id="minder_node7"><g id="node_expander11" style="cursor: pointer;"><path id="kity_path_158" fill="white" stroke="gray" d="M210.5,997.5A6,6,0,1,1,198.5,997.5A6,6,0,1,1,210.5,997.5"></path><path id="kity_path_159" fill="none" stroke="gray" d="M200,997.5L209,997.5"></path></g><path id="node_outline12" fill="rgb(238, 243, 246)" stroke="rgb(115, 161, 191)" d="M214.5,984.5h132a3,3,0,0,1,3,3v20a3,3,0,0,1,-3,3h-132a3,3,0,0,1,-3,-3v-20a3,3,0,0,1,3,-3z" stroke-width="1"></path><g id="node_text12" fill="black"><text id="kity_text_81" text-rendering="inherit" font-size="14" dy=".8em" y="988.4000000953674" x="231.5">近壁面流动行为</text></g></g><g id="minder_node8"><g id="node_expander6" display="none" style="cursor: pointer;"><path id="kity_path_143" fill="white" stroke="gray" d="M450.5,795.5A6,6,0,1,1,438.5,795.5A6,6,0,1,1,450.5,795.5"></path><path id="kity_path_144" fill="none" stroke="gray"></path></g><path id="node_outline7" fill="none" stroke="none" d="M394.5,663.5h210a5,5,0,0,1,5,5v133a5,5,0,0,1,-5,5h-210a5,5,0,0,1,-5,-5v-133a5,5,0,0,1,5,-5z"></path><g id="node_text7" fill="black"><text id="kity_text_71" text-rendering="inherit" font-size="12" dy=".8em" y="787.7000000476837" x="444.5">近壁面速度分层结构</text></g><image id="kity_image_105" xmlns:xlink="http://www.w3.org/1999/xlink" xlink:href="https://kityminder-img.gz.bcebos.com/2967f919d351c1c7fa95057e69ed2d12f171db3a" x="399.5" y="668.5" width="200" height="116"></image></g><g id="minder_node9"><g id="node_expander7" display="none" style="cursor: pointer;"><path id="kity_path_146" fill="white" stroke="gray" d="M462.5,985.5A6,6,0,1,1,450.5,985.5A6,6,0,1,1,462.5,985.5"></path><path id="kity_path_147" fill="none" stroke="gray"></path></g><path id="node_outline8" fill="none" stroke="none" d="M394.5,836.5h210a5,5,0,0,1,5,5v150a5,5,0,0,1,-5,5h-210a5,5,0,0,1,-5,-5v-150a5,5,0,0,1,5,-5z"></path><g id="node_text8" fill="black"><text id="kity_text_73" text-rendering="inherit" font-size="12" dy=".8em" y="977.7000000476837" x="456.5">近壁面速度分布</text></g><image id="kity_image_106" xmlns:xlink="http://www.w3.org/1999/xlink" xlink:href="https://kityminder-img.gz.bcebos.com/7d596344df4175b04741558ff85af9c6efc54806" x="399.5" y="841.5" width="200" height="133" xlink:title="U+&amp;Y+速度分布"></image></g><g id="minder_node10"><g id="node_expander8" display="none" style="cursor: pointer;"><path id="kity_path_149" fill="white" stroke="gray" d="M438.5,1125.5A6,6,0,1,1,426.5,1125.5A6,6,0,1,1,438.5,1125.5"></path><path id="kity_path_150" fill="none" stroke="gray"></path></g><path id="node_outline9" fill="none" stroke="none" d="M402.5,1019.5h257a5,5,0,0,1,5,5v111a5,5,0,0,1,-5,5h-257a5,5,0,0,1,-5,-5v-111a5,5,0,0,1,5,-5z"></path><g id="node_text9" fill="black"><text id="kity_text_75" text-rendering="inherit" font-size="12" dy=".8em" y="1117.7000000476837" x="432.5">粘性底层(sublayer) Y+&lt;5 :受粘性力支配</text></g><g id="node_priority1"><path id="kity_path_92" fill="#840023" stroke="none" d="M408,1129c0,3.866,3.134,7,7,7h6c3.866,0,7,-3.134,7,-7V1123H408V1129z"></path><path id="kity_path_93" fill="#FF1200" stroke="none" d="M428,1126c0,3.866,-3.134,7,-7,7H415c-3.866,0,-7,-3.134,-7,-7V1123c0,-3.866,3.134,-7,7,-7h6c3.866,0,7,3.134,7,7V1126z" opacity="0.8"></path><text id="kity_text_94" text-rendering="geometricPrecision" x="417" y="1125.5" text-anchor="middle" font-style="italic" font-size="12" fill="white" dy="5">1</text></g><image id="kity_image_107" xmlns:xlink="http://www.w3.org/1999/xlink" xlink:href="https://kityminder-img.gz.bcebos.com/a59610a66eb6031e329724d6ca893ae831f2d969" x="431.5" y="1024.5" width="200" height="86"></image></g><g id="minder_node11"><g id="node_expander9" display="none" style="cursor: pointer;"><path id="kity_path_152" fill="white" stroke="gray" d="M431.5,1256.5A6,6,0,1,1,419.5,1256.5A6,6,0,1,1,431.5,1256.5"></path><path id="kity_path_153" fill="none" stroke="gray"></path></g><path id="node_outline10" fill="none" stroke="none" d="M394.5,1177.5h210a5,5,0,0,1,5,5v84a5,5,0,0,1,-5,5h-210a5,5,0,0,1,-5,-5v-84a5,5,0,0,1,5,-5z"></path><g id="node_text10" fill="black"><text id="kity_text_77" text-rendering="inherit" font-size="12" dy=".8em" y="1248.7000000476837" x="425.5">对数层（log region）Y+&gt;60：</text></g><g id="node_priority2"><path id="kity_path_97" fill="#01467F" stroke="none" d="M401,1260c0,3.866,3.134,7,7,7h6c3.866,0,7,-3.134,7,-7V1254H401V1260z"></path><path id="kity_path_98" fill="#0074FF" stroke="none" d="M421,1257c0,3.866,-3.134,7,-7,7H408c-3.866,0,-7,-3.134,-7,-7V1254c0,-3.866,3.134,-7,7,-7h6c3.866,0,7,3.134,7,7V1257z" opacity="0.8"></path><text id="kity_text_99" text-rendering="geometricPrecision" x="410" y="1256.5" text-anchor="middle" font-style="italic" font-size="12" fill="white" dy="5">2</text></g><image id="kity_image_108" xmlns:xlink="http://www.w3.org/1999/xlink" xlink:href="https://kityminder-img.gz.bcebos.com/5db721727dd66790251477575ed2feabf093a5d1" x="399.5" y="1182.5" width="200" height="59"></image></g><g id="minder_node12"><g id="node_expander10" display="none" style="cursor: pointer;"><path id="kity_path_155" fill="white" stroke="gray" d="M430.5,1316.5A6,6,0,1,1,418.5,1316.5A6,6,0,1,1,430.5,1316.5"></path><path id="kity_path_156" fill="none" stroke="gray"></path></g><path id="node_outline11" fill="none" stroke="none" d="M394.5,1301.5h231a5,5,0,0,1,5,5v20a5,5,0,0,1,-5,5h-231a5,5,0,0,1,-5,-5v-20a5,5,0,0,1,5,-5z"></path><g id="node_text11" fill="black"><text id="kity_text_79" text-rendering="inherit" font-size="12" dy=".8em" y="1308.7000000476837" x="424.5">过渡层（Buffer Region）5&lt;Y+&lt;60</text></g><g id="node_priority3"><path id="kity_path_102" fill="#006300" stroke="none" d="M400,1320c0,3.866,3.134,7,7,7h6c3.866,0,7,-3.134,7,-7V1314H400V1320z"></path><path id="kity_path_103" fill="#00AF00" stroke="none" d="M420,1317c0,3.866,-3.134,7,-7,7H407c-3.866,0,-7,-3.134,-7,-7V1314c0,-3.866,3.134,-7,7,-7h6c3.866,0,7,3.134,7,7V1317z" opacity="0.8"></path><text id="kity_text_104" text-rendering="geometricPrecision" x="409" y="1316.5" text-anchor="middle" font-style="italic" font-size="12" fill="white" dy="5">3</text></g></g><g id="minder_node13"><g id="node_expander15" style="cursor: pointer;"><path id="kity_path_170" fill="white" stroke="gray" d="M169.5,1690.5A6,6,0,1,1,157.5,1690.5A6,6,0,1,1,169.5,1690.5"></path><path id="kity_path_171" fill="none" stroke="gray" d="M159,1690.5L168,1690.5"></path></g><path id="node_outline16" fill="rgb(238, 243, 246)" stroke="rgb(115, 161, 191)" d="M173.5,1677.5h133a3,3,0,0,1,3,3v20a3,3,0,0,1,-3,3h-133a3,3,0,0,1,-3,-3v-20a3,3,0,0,1,3,-3z" stroke-width="1"></path><g id="node_text16" fill="black"><text id="kity_text_89" text-rendering="inherit" font-size="14" dy=".8em" y="1681.4000000953674" x="190.5">近壁面处理方式</text></g></g><g id="minder_node14"><g id="node_expander12" display="none" style="cursor: pointer;"><path id="kity_path_161" fill="white" stroke="gray" d="M369.5,1523.5A6,6,0,1,1,357.5,1523.5A6,6,0,1,1,369.5,1523.5"></path><path id="kity_path_162" fill="none" stroke="gray"></path></g><path id="node_outline13" fill="none" stroke="none" d="M354.5,1486.5h210a5,5,0,0,1,5,5v38a5,5,0,0,1,-5,5h-210a5,5,0,0,1,-5,-5v-38a5,5,0,0,1,5,-5z"></path><g id="node_text13" fill="black"><text id="kity_text_83" text-rendering="inherit" font-size="12" dy=".8em" y="1515.7000000476837" x="363.5">壁面函数法 Wall Function Method</text></g><image id="kity_image_109" xmlns:xlink="http://www.w3.org/1999/xlink" xlink:href="https://kityminder-img.gz.bcebos.com/1d35fc70ad4eb21402fa7c3760fbafa4b0d97a25" x="359.5" y="1491.5" width="200" height="21"></image></g><g id="minder_node15"><g id="node_expander13" display="none" style="cursor: pointer;"><path id="kity_path_164" fill="white" stroke="gray" d="M365.5,1692.5A6,6,0,1,1,353.5,1692.5A6,6,0,1,1,365.5,1692.5"></path><path id="kity_path_165" fill="none" stroke="gray"></path></g><path id="node_outline14" fill="none" stroke="none" d="M354.5,1564.5h393a5,5,0,0,1,5,5v129a5,5,0,0,1,-5,5h-393a5,5,0,0,1,-5,-5v-129a5,5,0,0,1,5,-5z"></path><g id="node_text14" fill="black"><text id="kity_text_85" text-rendering="inherit" font-size="12" dy=".8em" y="1684.7000000476837" x="359.5">近壁面处理模型：需要有非常细密的网格，通常需要10-29层边界层网格</text></g><image id="kity_image_110" xmlns:xlink="http://www.w3.org/1999/xlink" xlink:href="https://kityminder-img.gz.bcebos.com/ad02d771e1a0c2354e175d1d654be8fbfed1667e" x="450.5" y="1569.5" width="200" height="112"></image></g><g id="minder_node16"><g id="node_expander14" display="none" style="cursor: pointer;"><path id="kity_path_167" fill="white" stroke="gray" d="M422.5,1884.5A6,6,0,1,1,410.5,1884.5A6,6,0,1,1,422.5,1884.5"></path><path id="kity_path_168" fill="none" stroke="gray"></path></g><path id="node_outline15" fill="none" stroke="none" d="M354.5,1733.5h210a5,5,0,0,1,5,5v152a5,5,0,0,1,-5,5h-210a5,5,0,0,1,-5,-5v-152a5,5,0,0,1,5,-5z"></path><g id="node_text15" fill="black"><text id="kity_text_87" text-rendering="inherit" font-size="12" dy=".8em" y="1876.7000000476837" x="416.5">适用方法推荐：</text></g><image id="kity_image_111" xmlns:xlink="http://www.w3.org/1999/xlink" xlink:href="https://kityminder-img.gz.bcebos.com/935cc1ea0f882841bfa32b8ef7f100cbae5ff0f1" x="359.5" y="1738.5" width="200" height="135"></image></g></g></g></svg>