<svg id="kity_svg_6" xmlns="http://www.w3.org/2000/svg" xmlns:xlink="http://www.w3.org/1999/xlink" version="1.1" width="839" height="2058" style="background: rgb(251, 251, 251); visibility: visible;" viewBox="0 0 839 2058"><defs id="kity_defs_7"><linearGradient id="kity_linearGradient_17" x1="0" y1="0" x2="0" y2="1"><stop id="kity_stop_18" offset="0" stop-color="rgb(255, 255, 255)"></stop><stop id="kity_stop_19" offset="1" stop-color="rgb(204, 204, 204)"></stop></linearGradient><marker id="kity_marker_2" orient="auto" refX="6" refY="0" viewBox="-7 -7 14 14" markerWidth="7" markerHeight="7" markerUnits="userSpaceOnUse"><path id="kity_path_3" fill="rgb(115, 161, 191)" stroke="none" d="M6,0A6,6,0,1,1,-6,0A6,6,0,1,1,6,0"></path></marker></defs><g id="kity_g_8"><g id="minder1" text-rendering="optimize-speed"><g id="minder_connect_group1"><path id="kity_path_31" fill="none" stroke="rgb(115, 161, 191)" stroke-width="1" d="M85,857.5A133.5,748,0,0,1,218.5,109.5"></path><path id="kity_path_33" fill="none" stroke="rgb(115, 161, 191)" stroke-width="1" d="M358.5,109.5C378.5,109.5,378.5,31.5,398.5,31.5"></path><path id="kity_path_35" fill="none" stroke="rgb(115, 161, 191)" stroke-width="1" d="M358.5,109.5C378.5,109.5,378.5,83.5,398.5,83.5"></path><path id="kity_path_37" fill="none" stroke="rgb(115, 161, 191)" stroke-width="1" d="M358.5,109.5C378.5,109.5,378.5,135.5,398.5,135.5"></path><path id="kity_path_39" fill="none" stroke="rgb(115, 161, 191)" stroke-width="1" d="M358.5,109.5C378.5,109.5,378.5,187.5,398.5,187.5"></path><path id="kity_path_41" fill="none" stroke="rgb(115, 161, 191)" stroke-width="1" d="M85,857.5A124.5,195,0,0,0,209.5,1052.5"></path><path id="kity_path_43" fill="none" stroke="rgb(115, 161, 191)" stroke-width="1" d="M349.5,1052.5C387,1052.5,387,420,424.5,420"></path><path id="kity_path_45" fill="none" stroke="rgb(115, 161, 191)" stroke-width="1" d="M349.5,1052.5C413.5,1052.5,413.5,663.5,477.5,663.5"></path><path id="kity_path_47" fill="none" stroke="rgb(115, 161, 191)" stroke-width="1" d="M349.5,1052.5C422,1052.5,422,872,494.5,872"></path><path id="kity_path_49" fill="none" stroke="rgb(115, 161, 191)" stroke-width="1" d="M349.5,1052.5C430.5,1052.5,430.5,1064.5,511.5,1064.5"></path><path id="kity_path_51" fill="none" stroke="rgb(115, 161, 191)" stroke-width="1" d="M349.5,1052.5C414,1052.5,414,1270,478.5,1270"></path><path id="kity_path_53" fill="none" stroke="rgb(115, 161, 191)" stroke-width="1" d="M85,857.5A83.5,943,0,0,0,168.5,1800.5"></path><path id="kity_path_55" fill="none" stroke="rgb(115, 161, 191)" stroke-width="1" d="M309.5,1800.5C365,1800.5,365,1518.5,420.5,1518.5"></path><path id="kity_path_57" fill="none" stroke="rgb(115, 161, 191)" stroke-width="1" d="M309.5,1800.5C363,1800.5,363,1714,416.5,1714"></path><path id="kity_path_59" fill="none" stroke="rgb(115, 161, 191)" stroke-width="1" d="M309.5,1800.5C367.5,1800.5,367.5,1957.5,425.5,1957.5"></path></g><g id="minder_node1"><path id="node_outline1" fill="rgb(115, 161, 191)" stroke="rgb(115, 161, 191)" d="M25.5,837.5h119a5,5,0,0,1,5,5v30a5,5,0,0,1,-5,5h-119a5,5,0,0,1,-5,-5v-30a5,5,0,0,1,5,-5z" stroke-width="3"></path><g id="node_text1" fill="white"><text id="kity_text_22" text-rendering="inherit" font-size="16" dy=".8em" y="847.0999999046326" x="44.5">近壁面处理</text></g></g><g id="kity_g_12" display="none"><path id="kity_path_13" fill="none" stroke="none" d="M44.5,857.5h0v0h0z"></path></g><g id="kity_g_14" display="none"><path id="kity_path_15" fill="none" stroke="none" d="M44.5,857.5h0v0h0z"></path><path id="kity_path_16" fill="none" stroke="none"></path></g><g id="minder_node2"><g id="node_expander5" style="cursor: pointer;"><path id="kity_path_140" fill="white" stroke="gray" d="M219.5,109.5A6,6,0,1,1,207.5,109.5A6,6,0,1,1,219.5,109.5"></path><path id="kity_path_141" fill="none" stroke="gray" d="M209,109.5L218,109.5"></path></g><path id="node_outline6" fill="rgb(238, 243, 246)" stroke="rgb(115, 161, 191)" d="M223.5,96.5h132a3,3,0,0,1,3,3v20a3,3,0,0,1,-3,3h-132a3,3,0,0,1,-3,-3v-20a3,3,0,0,1,3,-3z" stroke-width="1"></path><g id="node_text6" fill="black"><text id="kity_text_69" text-rendering="inherit" font-size="14" dy=".8em" y="100.40000009536743" x="240.5">近壁处理的目的</text></g></g><g id="minder_node3"><g id="node_expander1" style="cursor: pointer;" display="none"><path id="kity_path_128" fill="white" stroke="gray" d="M414.5,31.5A6,6,0,1,1,402.5,31.5A6,6,0,1,1,414.5,31.5"></path><path id="kity_path_129" fill="none" stroke="gray"></path></g><path id="node_outline2" fill="none" stroke="none" d="M403.5,20.5h120a5,5,0,0,1,5,5v12a5,5,0,0,1,-5,5h-120a5,5,0,0,1,-5,-5v-12a5,5,0,0,1,5,-5z"></path><g id="node_text2" fill="black"><text id="kity_text_61" text-rendering="inherit" font-size="12" dy=".8em" y="23.700000047683716" x="408.5">涡和湍流的主要来源</text></g></g><g id="minder_node4"><g id="node_expander2" style="cursor: pointer;" display="none"><path id="kity_path_131" fill="white" stroke="gray" d="M414.5,83.5A6,6,0,1,1,402.5,83.5A6,6,0,1,1,414.5,83.5"></path><path id="kity_path_132" fill="none" stroke="gray"></path></g><path id="node_outline3" fill="none" stroke="none" d="M403.5,72.5h144a5,5,0,0,1,5,5v12a5,5,0,0,1,-5,5h-144a5,5,0,0,1,-5,-5v-12a5,5,0,0,1,5,-5z"></path><g id="node_text3" fill="black"><text id="kity_text_63" text-rendering="inherit" font-size="12" dy=".8em" y="75.70000004768372" x="408.5">壁面导致湍流动量边界层</text></g></g><g id="minder_node5"><g id="node_expander3" style="cursor: pointer;" display="none"><path id="kity_path_134" fill="white" stroke="gray" d="M414.5,135.5A6,6,0,1,1,402.5,135.5A6,6,0,1,1,414.5,135.5"></path><path id="kity_path_135" fill="none" stroke="gray"></path></g><path id="node_outline4" fill="none" stroke="none" d="M403.5,124.5h108a5,5,0,0,1,5,5v12a5,5,0,0,1,-5,5h-108a5,5,0,0,1,-5,-5v-12a5,5,0,0,1,5,-5z"></path><g id="node_text4" fill="black"><text id="kity_text_65" text-rendering="inherit" font-size="12" dy=".8em" y="127.70000004768372" x="408.5">精细网格处理昂贵</text></g></g><g id="minder_node6"><g id="node_expander4" style="cursor: pointer;" display="none"><path id="kity_path_137" fill="white" stroke="gray" d="M414.5,187.5A6,6,0,1,1,402.5,187.5A6,6,0,1,1,414.5,187.5"></path><path id="kity_path_138" fill="none" stroke="gray"></path></g><path id="node_outline5" fill="none" stroke="none" d="M403.5,176.5h168a5,5,0,0,1,5,5v12a5,5,0,0,1,-5,5h-168a5,5,0,0,1,-5,-5v-12a5,5,0,0,1,5,-5z"></path><g id="node_text5" fill="black"><text id="kity_text_67" text-rendering="inherit" font-size="12" dy=".8em" y="179.70000004768372" x="408.5">粗糙网格下的近壁面处理模型</text></g></g><g id="minder_node7"><g id="node_expander11" style="cursor: pointer;"><path id="kity_path_158" fill="white" stroke="gray" d="M210.5,1052.5A6,6,0,1,1,198.5,1052.5A6,6,0,1,1,210.5,1052.5"></path><path id="kity_path_159" fill="none" stroke="gray" d="M200,1052.5L209,1052.5"></path></g><path id="node_outline12" fill="rgb(238, 243, 246)" stroke="rgb(115, 161, 191)" d="M214.5,1039.5h132a3,3,0,0,1,3,3v20a3,3,0,0,1,-3,3h-132a3,3,0,0,1,-3,-3v-20a3,3,0,0,1,3,-3z" stroke-width="1"></path><g id="node_text12" fill="black"><text id="kity_text_81" text-rendering="inherit" font-size="14" dy=".8em" y="1043.4000000953674" x="231.5">近壁面流动行为</text></g></g><g id="minder_node8" opacity="1"><g id="node_expander6" style="cursor: pointer;" display="none"><path id="kity_path_143" fill="white" stroke="gray" d="M485.5,480.5A6,6,0,1,1,473.5,480.5A6,6,0,1,1,485.5,480.5"></path><path id="kity_path_144" fill="none" stroke="gray"></path></g><path id="node_outline7" fill="none" stroke="none" d="M429.5,348.5h210a5,5,0,0,1,5,5v133a5,5,0,0,1,-5,5h-210a5,5,0,0,1,-5,-5v-133a5,5,0,0,1,5,-5z" stroke-width="3"></path><g id="node_text7" fill="black"><text id="kity_text_71" text-rendering="inherit" font-size="12" dy=".8em" y="472.7000000476837" x="479.5">近壁面速度分层结构</text></g><image id="kity_image_105" xmlns:xlink="http://www.w3.org/1999/xlink" xlink:href="https://kityminder-img.gz.bcebos.com/2967f919d351c1c7fa95057e69ed2d12f171db3a" x="434.5" y="353.5" width="200" height="116"></image></g><g id="minder_node9" opacity="1"><g id="node_expander7" style="cursor: pointer;" display="none"><path id="kity_path_146" fill="white" stroke="gray" d="M550.5,732.5A6,6,0,1,1,538.5,732.5A6,6,0,1,1,550.5,732.5"></path><path id="kity_path_147" fill="none" stroke="gray"></path></g><path id="node_outline8" fill="none" stroke="none" d="M482.5,583.5h210a5,5,0,0,1,5,5v150a5,5,0,0,1,-5,5h-210a5,5,0,0,1,-5,-5v-150a5,5,0,0,1,5,-5z" stroke-width="3"></path><g id="node_text8" fill="black"><text id="kity_text_73" text-rendering="inherit" font-size="12" dy=".8em" y="724.7000000476837" x="544.5">近壁面速度分布</text></g><image id="kity_image_106" xmlns:xlink="http://www.w3.org/1999/xlink" xlink:href="https://kityminder-img.gz.bcebos.com/7d596344df4175b04741558ff85af9c6efc54806" x="487.5" y="588.5" width="200" height="133" xlink:title="U+&amp;Y+速度分布"></image></g><g id="minder_node10" opacity="1"><g id="node_expander8" style="cursor: pointer;" display="none"><path id="kity_path_149" fill="white" stroke="gray" d="M535.5,917.5A6,6,0,1,1,523.5,917.5A6,6,0,1,1,535.5,917.5"></path><path id="kity_path_150" fill="none" stroke="gray"></path></g><path id="node_outline9" fill="none" stroke="none" d="M499.5,811.5h257a5,5,0,0,1,5,5v111a5,5,0,0,1,-5,5h-257a5,5,0,0,1,-5,-5v-111a5,5,0,0,1,5,-5z" stroke-width="3"></path><g id="node_text9" fill="black"><text id="kity_text_75" text-rendering="inherit" font-size="12" dy=".8em" y="909.7000000476837" x="529.5">粘性底层(sublayer) Y+&lt;5 :受粘性力支配</text></g><g id="node_priority1"><path id="kity_path_92" fill="#840023" stroke="none" d="M505,921c0,3.866,3.134,7,7,7h6c3.866,0,7,-3.134,7,-7V915H505V921z"></path><path id="kity_path_93" fill="#FF1200" stroke="none" d="M525,918c0,3.866,-3.134,7,-7,7H512c-3.866,0,-7,-3.134,-7,-7V915c0,-3.866,3.134,-7,7,-7h6c3.866,0,7,3.134,7,7V918z" opacity="0.8"></path><text id="kity_text_94" text-rendering="geometricPrecision" x="514" y="917.5" text-anchor="middle" font-style="italic" font-size="12" fill="white" dy="5">1</text></g><image id="kity_image_107" xmlns:xlink="http://www.w3.org/1999/xlink" xlink:href="https://kityminder-img.gz.bcebos.com/a59610a66eb6031e329724d6ca893ae831f2d969" x="528.5" y="816.5" width="200" height="86"></image></g><g id="minder_node11" opacity="1"><g id="node_expander9" style="cursor: pointer;" display="none"><path id="kity_path_152" fill="white" stroke="gray" d="M553.5,1096.5A6,6,0,1,1,541.5,1096.5A6,6,0,1,1,553.5,1096.5"></path><path id="kity_path_153" fill="none" stroke="gray"></path></g><path id="node_outline10" fill="none" stroke="none" d="M516.5,1017.5h210a5,5,0,0,1,5,5v84a5,5,0,0,1,-5,5h-210a5,5,0,0,1,-5,-5v-84a5,5,0,0,1,5,-5z" stroke-width="3"></path><g id="node_text10" fill="black"><text id="kity_text_77" text-rendering="inherit" font-size="12" dy=".8em" y="1088.7000000476837" x="547.5">对数层（log region）Y+&gt;60：</text></g><g id="node_priority2"><path id="kity_path_97" fill="#01467F" stroke="none" d="M523,1100c0,3.866,3.134,7,7,7h6c3.866,0,7,-3.134,7,-7V1094H523V1100z"></path><path id="kity_path_98" fill="#0074FF" stroke="none" d="M543,1097c0,3.866,-3.134,7,-7,7H530c-3.866,0,-7,-3.134,-7,-7V1094c0,-3.866,3.134,-7,7,-7h6c3.866,0,7,3.134,7,7V1097z" opacity="0.8"></path><text id="kity_text_99" text-rendering="geometricPrecision" x="532" y="1096.5" text-anchor="middle" font-style="italic" font-size="12" fill="white" dy="5">2</text></g><image id="kity_image_108" xmlns:xlink="http://www.w3.org/1999/xlink" xlink:href="https://kityminder-img.gz.bcebos.com/5db721727dd66790251477575ed2feabf093a5d1" x="521.5" y="1022.5" width="200" height="59"></image></g><g id="minder_node12" opacity="1"><g id="node_expander10" style="cursor: pointer;" display="none"><path id="kity_path_155" fill="white" stroke="gray" d="M519.5,1325.5A6,6,0,1,1,507.5,1325.5A6,6,0,1,1,519.5,1325.5"></path><path id="kity_path_156" fill="none" stroke="gray"></path></g><path id="node_outline11" fill="none" stroke="none" d="M483.5,1199.5h231a5,5,0,0,1,5,5v131a5,5,0,0,1,-5,5h-231a5,5,0,0,1,-5,-5v-131a5,5,0,0,1,5,-5z" stroke-width="3"></path><g id="node_text11" fill="black"><text id="kity_text_79" text-rendering="inherit" font-size="12" dy=".8em" y="1317.7000000476837" x="513.5">过渡层（Buffer Region）5&lt;Y+&lt;60</text></g><g id="node_priority3"><path id="kity_path_102" fill="#006300" stroke="none" d="M489,1329c0,3.866,3.134,7,7,7h6c3.866,0,7,-3.134,7,-7V1323H489V1329z"></path><path id="kity_path_103" fill="#00AF00" stroke="none" d="M509,1326c0,3.866,-3.134,7,-7,7H496c-3.866,0,-7,-3.134,-7,-7V1323c0,-3.866,3.134,-7,7,-7h6c3.866,0,7,3.134,7,7V1326z" opacity="0.8"></path><text id="kity_text_104" text-rendering="geometricPrecision" x="498" y="1325.5" text-anchor="middle" font-style="italic" font-size="12" fill="white" dy="5">3</text></g><image id="kity_image_172" xmlns:xlink="http://www.w3.org/1999/xlink" xlink:href="https://kityminder-img.gz.bcebos.com/5665406e0e6a5febdb37458e585fc7c6698154f2" x="499.5" y="1204.5" width="200" height="106"></image></g><g id="minder_node13"><g id="node_expander15" style="cursor: pointer;"><path id="kity_path_170" fill="white" stroke="gray" d="M169.5,1800.5A6,6,0,1,1,157.5,1800.5A6,6,0,1,1,169.5,1800.5"></path><path id="kity_path_171" fill="none" stroke="gray" d="M159,1800.5L168,1800.5"></path></g><path id="node_outline16" fill="rgb(238, 243, 246)" stroke="rgb(115, 161, 191)" d="M173.5,1787.5h133a3,3,0,0,1,3,3v20a3,3,0,0,1,-3,3h-133a3,3,0,0,1,-3,-3v-20a3,3,0,0,1,3,-3z" stroke-width="1"></path><g id="node_text16" fill="black"><text id="kity_text_89" text-rendering="inherit" font-size="14" dy=".8em" y="1791.4000000953674" x="190.5">近壁面处理方式</text></g></g><g id="minder_node14" opacity="1"><g id="node_expander12" style="cursor: pointer;" display="none"><path id="kity_path_161" fill="white" stroke="gray" d="M440.5,1531.5A6,6,0,1,1,428.5,1531.5A6,6,0,1,1,440.5,1531.5"></path><path id="kity_path_162" fill="none" stroke="gray"></path></g><path id="node_outline13" fill="none" stroke="none" d="M425.5,1494.5h210a5,5,0,0,1,5,5v38a5,5,0,0,1,-5,5h-210a5,5,0,0,1,-5,-5v-38a5,5,0,0,1,5,-5z" stroke-width="3"></path><g id="node_text13" fill="black"><text id="kity_text_83" text-rendering="inherit" font-size="12" dy=".8em" y="1523.7000000476837" x="434.5">壁面函数法 Wall Function Method</text></g><image id="kity_image_109" xmlns:xlink="http://www.w3.org/1999/xlink" xlink:href="https://kityminder-img.gz.bcebos.com/1d35fc70ad4eb21402fa7c3760fbafa4b0d97a25" x="430.5" y="1499.5" width="200" height="21"></image></g><g id="minder_node15" opacity="1"><g id="node_expander13" style="cursor: pointer;" display="none"><path id="kity_path_164" fill="white" stroke="gray" d="M432.5,1772.5A6,6,0,1,1,420.5,1772.5A6,6,0,1,1,432.5,1772.5"></path><path id="kity_path_165" fill="none" stroke="gray"></path></g><path id="node_outline14" fill="none" stroke="none" d="M421.5,1644.5h393a5,5,0,0,1,5,5v129a5,5,0,0,1,-5,5h-393a5,5,0,0,1,-5,-5v-129a5,5,0,0,1,5,-5z" stroke-width="3"></path><g id="node_text14" fill="black"><text id="kity_text_85" text-rendering="inherit" font-size="12" dy=".8em" y="1764.7000000476837" x="426.5">近壁面处理模型：需要有非常细密的网格，通常需要10-29层边界层网格</text></g><image id="kity_image_110" xmlns:xlink="http://www.w3.org/1999/xlink" xlink:href="https://kityminder-img.gz.bcebos.com/ad02d771e1a0c2354e175d1d654be8fbfed1667e" x="517.5" y="1649.5" width="200" height="112"></image></g><g id="minder_node16" opacity="1"><g id="node_expander14" style="cursor: pointer;" display="none"><path id="kity_path_167" fill="white" stroke="gray" d="M498.5,2027.5A6,6,0,1,1,486.5,2027.5A6,6,0,1,1,498.5,2027.5"></path><path id="kity_path_168" fill="none" stroke="gray"></path></g><path id="node_outline15" fill="none" stroke="none" d="M430.5,1876.5h210a5,5,0,0,1,5,5v152a5,5,0,0,1,-5,5h-210a5,5,0,0,1,-5,-5v-152a5,5,0,0,1,5,-5z" stroke-width="3"></path><g id="node_text15" fill="black"><text id="kity_text_87" text-rendering="inherit" font-size="12" dy=".8em" y="2019.7000000476837" x="492.5">适用方法推荐：</text></g><image id="kity_image_111" xmlns:xlink="http://www.w3.org/1999/xlink" xlink:href="https://kityminder-img.gz.bcebos.com/935cc1ea0f882841bfa32b8ef7f100cbae5ff0f1" x="435.5" y="1881.5" width="200" height="135"></image></g></g></g></svg>